<?xml version="1.0" standalone="no"?>
<!DOCTYPE svg PUBLIC "-//W3C//DTD SVG 20010904//EN"
 "http://www.w3.org/TR/2001/REC-SVG-20010904/DTD/svg10.dtd">
<svg version="1.0" xmlns="http://www.w3.org/2000/svg"
 width="509.000000pt" height="86.000000pt" viewBox="0 0 509.000000 86.000000"
 preserveAspectRatio="xMidYMid meet">

<g transform="translate(0.000000,86.000000) scale(0.100000,-0.100000)"
fill="#ccc" stroke="none">
<path d="M2314 678 c-4 -6 -15 -58 -24 -115 -18 -111 -38 -146 -102 -179 -73
-38 -118 -5 -99 71 13 52 7 73 -24 81 -33 8 -76 -18 -129 -78 -60 -67 -103
-98 -138 -98 -33 0 -40 11 -49 79 -4 30 -14 60 -22 68 -22 22 -64 -5 -107 -66
-43 -62 -65 -67 -57 -13 3 20 9 55 12 77 l6 40 -21 -27 c-18 -23 -30 -28 -65
-28 -52 0 -92 14 -122 42 -27 26 -45 17 -135 -68 -117 -110 -132 -114 -168
-45 -25 50 -25 63 0 79 20 12 27 46 11 56 -11 7 -37 -22 -51 -58 -10 -26 -7
-37 21 -90 l31 -60 -27 -23 c-14 -13 -32 -23 -39 -23 -18 0 -39 -27 -31 -40 9
-14 49 9 139 80 42 33 78 60 81 60 3 0 5 -13 5 -30 0 -44 31 -71 72 -64 18 4
47 14 63 23 35 19 78 96 69 124 -5 17 -3 18 28 11 18 -5 48 -8 67 -7 l33 2 -6
-52 c-4 -30 -2 -58 4 -67 9 -13 16 -9 43 21 17 20 45 53 60 73 42 55 68 47 85
-24 23 -93 55 -108 123 -59 37 26 49 24 49 -10 0 -43 21 -56 62 -36 18 10 47
31 64 47 l32 30 26 -27 c33 -33 60 -29 129 22 26 19 49 34 51 32 1 -2 7 -19
12 -38 12 -44 52 -74 86 -66 36 9 105 70 124 109 l15 31 -30 -34 c-61 -70
-138 -94 -161 -52 -15 29 -12 125 9 229 16 84 14 122 -5 90z m-942 -180 c34
-26 26 -82 -17 -125 -29 -29 -40 -34 -72 -31 -36 3 -38 5 -41 38 -1 27 6 46
33 83 37 49 65 59 97 35z m695 -38 c-3 -23 -13 -52 -22 -66 -20 -31 -73 -64
-102 -64 -32 0 -30 40 2 96 31 52 60 74 99 74 28 0 28 -1 23 -40z"/>
<path d="M4774 678 c-4 -6 -15 -58 -24 -115 -18 -111 -38 -146 -102 -179 -73
-38 -118 -5 -99 71 13 52 7 73 -24 81 -33 8 -76 -18 -129 -78 -60 -67 -103
-98 -138 -98 -33 0 -40 11 -49 79 -4 30 -14 60 -22 68 -22 22 -64 -5 -107 -66
-19 -28 -41 -51 -49 -51 -14 0 -13 13 5 114 5 28 4 37 -4 32 -24 -14 -49 -171
-32 -196 9 -13 15 -9 43 21 17 20 45 53 60 73 42 55 68 47 85 -24 23 -93 55
-108 123 -59 37 26 49 24 49 -10 0 -43 21 -56 62 -36 18 10 47 31 64 47 l32
30 26 -27 c33 -33 60 -29 129 22 26 19 49 34 51 32 1 -2 7 -19 12 -38 12 -44
52 -74 86 -66 36 9 105 70 124 109 l15 31 -30 -34 c-61 -70 -138 -94 -161 -52
-15 29 -12 125 9 229 16 84 14 122 -5 90z m-247 -218 c-3 -23 -13 -52 -22 -66
-20 -31 -73 -64 -102 -64 -32 0 -30 40 2 96 31 52 60 74 99 74 28 0 28 -1 23
-40z"/>
<path d="M215 664 c-102 -20 -125 -27 -136 -40 -20 -24 -2 -28 59 -10 57 16
195 22 226 10 23 -9 19 -38 -10 -73 -24 -29 -172 -111 -200 -111 -18 0 -18 31
0 100 8 30 12 58 9 63 -10 17 -23 -8 -39 -81 -27 -120 -22 -284 8 -266 7 4 9
29 4 73 l-6 66 76 34 c101 46 169 97 190 144 17 37 17 39 -3 59 -29 28 -116
44 -178 32z"/>
<path d="M2894 543 c0 -103 -2 -123 -21 -159 -12 -23 -29 -44 -38 -48 -29 -11
-85 -6 -116 9 -31 17 -49 13 -49 -9 0 -15 37 -32 92 -42 53 -9 103 18 135 74
22 38 28 61 31 133 5 101 -3 159 -22 159 -10 0 -13 -27 -12 -117z"/>
<path d="M519 539 c-50 -53 -66 -166 -30 -210 38 -47 141 -18 215 60 17 17 33
31 38 31 4 0 8 -29 8 -65 0 -84 19 -87 49 -6 27 76 85 131 136 131 39 0 46 14
15 30 -41 22 -132 -49 -155 -121 -12 -35 -28 -21 -21 19 3 20 9 54 12 75 9 50
-12 49 -26 -2 -7 -29 -23 -49 -63 -79 -62 -48 -95 -62 -147 -62 -29 0 -42 5
-50 20 -10 18 -3 28 50 78 58 56 69 78 54 116 -10 26 -53 19 -85 -15z m68 -16
c5 -15 -65 -93 -82 -93 -17 0 -6 44 20 84 18 28 55 33 62 9z"/>
<path d="M3100 528 c-46 -33 -91 -98 -97 -145 -10 -77 48 -100 132 -54 35 19
78 96 69 124 -5 17 -3 18 28 11 18 -5 50 -8 70 -6 l38 2 -6 -73 c-5 -58 -3
-75 9 -85 29 -25 104 23 149 96 25 40 35 40 46 0 13 -50 39 -61 87 -38 22 11
55 31 73 46 l32 27 0 -72 c0 -90 19 -95 49 -12 27 76 85 131 136 131 39 0 46
14 15 30 -41 22 -132 -49 -155 -121 -12 -35 -28 -21 -21 19 3 20 9 54 12 75 7
41 -10 53 -22 15 -14 -48 -100 -118 -145 -118 -37 0 -49 24 -49 102 l-1 63
-33 -70 c-42 -88 -97 -147 -135 -143 -29 3 -31 17 -16 129 8 60 -5 86 -25 49
-20 -37 -142 -21 -179 23 -17 22 -22 21 -61 -5z m62 -30 c34 -26 26 -82 -17
-125 -29 -29 -40 -34 -72 -31 -36 3 -38 5 -41 38 -1 27 6 46 33 83 37 49 65
59 97 35z"/>
</g>
</svg>
